PathFileType	4	(X/Y/Z)	Patient4_TMGait_0pt7_01_right_18.trc.trc
DataRate	CameraRate	NumFrames	NumMarkers	Units	OrigDataRate	OrigDataStartFrame	OrigNumFrames
85.365853658537	85.365853658537	6	33	mm	85.365853658537	1	       141
Frame#	Time	Sacral			L.Shoulder			Chest			R.Shoulder			Neck			R.ASIS			L.ASIS			R.Thigh.Superior			R.Thigh.Lateral			R.Thigh.Inferior			R.Patella			L.Thigh.Superior			L.Thigh.Lateral			L.Thigh.Inferior			L.Patella			L.Shank.Superior			L.Shank.Lateral			L.Shank.Inferior			R.Shank.Superior			R.Shank.Lateral			R.Shank.Inferior			R.Heel			R.Midfoot.Superior			R.Midfoot.Lateral			R.Toe			L.Heel			L.Midfoot.Lateral			L.Midfoot.Superior			L.Toe			L.Elbow			L.Wrist			R.Elbow			R.Wrist			
		X1	Y1	Z1	X2	Y2	Z2	X3	Y3	Z3	X4	Y4	Z4	X5	Y5	Z5	X6	Y6	Z6	X7	Y7	Z7	X8	Y8	Z8	X9	Y9	Z9	X10	Y10	Z10	X11	Y11	Z11	X12	Y12	Z12	X13	Y13	Z13	X14	Y14	Z14	X15	Y15	Z15	X16	Y16	Z16	X17	Y17	Z17	X18	Y18	Z18	X19	Y19	Z19	X20	Y20	Z20	X21	Y21	Z21	X22	Y22	Z22	X23	Y23	Z23	X24	Y24	Z24	X25	Y25	Z25	X26	Y26	Z26	X27	Y27	Z27	X28	Y28	Z28	X29	Y29	Z29	X30	Y30	Z30	X31	Y31	Z31	X32	Y32	Z32	X33	Y33	Z33	

1	20.060000000000	811.125422636632	1012.686391712971	427.875948245399	997.843054413311	1427.520929133267	226.917601727212	1099.313322842437	1363.557885272279	392.103956516939	1018.548687297192	1450.811501488721	561.599378864208	1001.559756445426	1497.527607698763	378.939233592342	1038.550105510474	950.474662849128	543.169663937867	1025.609320321920	963.816716671027	270.731978493263	1130.190408686373	791.112932947325	520.064478438700	1099.793460225363	669.994220698391	598.225820468394	1194.786640294828	636.717125170548	522.722967543926	1221.749069099788	522.612221749228	546.002150287163	1069.978281002019	752.607901318647	299.176950415066	975.966287709414	639.813071817678	244.420071244537	1058.405994264284	559.730525492984	306.768633742638	1055.860330843258	491.358493654250	318.257458704651	1031.491761525458	420.739371955721	310.913655382907	942.568191655356	304.071358749766	263.048591912839	997.791044821388	195.266130022903	335.601662768718	1143.462626241350	445.705567907778	551.633850251677	1019.301078264171	409.655540111900	609.627770147780	1003.087402918977	300.994083940092	560.627358974632	800.360925956644	238.159174086439	528.051971360529	970.492521881186	187.352403318427	576.464506519885	859.141877077447	184.546767305717	606.147149234031	1036.135154317340	76.502225084917	609.382160356677	872.801198813038	38.444972521182	383.095197295672	945.395047670719	35.229162661390	301.033490074331	1028.195818830846	96.468681940624	325.664564835124	1156.746741395600	45.472565948005	295.520980331718	983.941008273434	1075.897926290452	109.682945422508	1091.335958187831	837.609352644642	122.084129017303	998.379092939230	1108.173329000779	692.455700843927	1201.053926852511	954.581122968778	637.545668505608	
2	20.071714285714	809.973723624047	1011.978485343417	426.135509772221	998.004074730174	1427.888463195513	226.960592583382	1098.056332701498	1363.535602713752	392.862451861985	1015.804078964006	1450.234054426555	561.869767167937	1000.517395156449	1497.507556534093	379.133634604529	1036.947115547223	951.154089007979	543.464435525694	1025.586432449312	963.990076356140	270.355119837982	1130.616757076711	794.532096529021	519.926380484494	1102.607549171023	673.163018575407	598.525502031949	1197.945523333734	641.413508150562	522.894144621880	1227.123233145754	528.676820328121	546.646640303309	1067.913423718945	751.713841039553	300.043698417702	973.161255946380	639.532375317307	243.971688175748	1053.883997328861	558.699039547431	307.136102192231	1050.409927205832	490.418666564979	318.646996221514	1025.739809634467	419.951386834595	311.119447157031	936.359462576988	303.892152265906	262.895895324545	990.151715322872	194.799592169497	335.807637768555	1152.728019135708	449.340234457234	552.631491986102	1031.220241694566	407.322723548297	611.063361475421	1020.336761230414	298.143797896099	562.478161029276	821.478849981073	225.824160259092	530.882475457482	993.443045084557	182.887024227261	578.768265474877	882.722923878399	175.122560513943	608.748635591893	1063.923448338404	75.481209954062	611.677990880785	864.099040791919	38.417752925448	383.127206279071	936.730574930410	35.232058115167	301.052401302058	1019.573053077368	96.357324222634	325.817521588956	1148.132531841023	45.253006449979	295.592047803726	992.596539299376	1078.027563523128	106.043799173361	1111.833442483406	846.362524876592	119.530843719171	987.758447111187	1108.004360509810	692.825572079411	1174.370981764675	936.721774834165	648.683719733182	
3	20.083428571429	808.867031819842	1011.281051697370	424.442863062118	998.196031584432	1428.247572530770	227.023085428952	1096.832833041178	1363.503045988619	393.634360394342	1013.104586603112	1449.654216859434	562.155616835618	999.505019051980	1497.479581145012	379.345948450800	1035.354555829322	951.785412164408	543.734821073943	1025.576574703543	964.149462553660	269.999209074037	1130.988294553154	797.820117857327	519.802208787069	1105.258311903473	676.192011893054	598.809149538698	1200.907577478480	645.898147447748	523.060609319892	1232.251416935113	534.566393854846	547.285805745708	1065.878137910497	750.820200880449	300.889334750808	970.372563453182	639.253009682486	243.541687918111	1049.395059532184	557.675563347770	307.495997272837	1045.010731020382	489.499900564191	319.027112029638	1020.043714104933	419.175278171143	311.324154437775	930.212490769249	303.712853623618	262.745648958339	982.584381835233	194.335387955041	336.015518945300	1161.753091665553	452.845694102152	553.617258128675	1043.005132696321	404.855152375657	612.524901530691	1037.495528385131	295.208376337285	564.341579755295	842.639658479897	213.410764772872	533.736771107125	1016.381698666780	178.351168527582	581.079806296890	906.330258093002	165.635359272507	611.369913267262	1091.678148001494	74.419628403614	613.962579035360	855.505277552338	38.395372358806	383.150882562795	928.169877364468	35.234161372644	301.070705629669	1011.055673473270	96.249582774208	325.966359022745	1139.621605638901	45.031834709858	295.661141244296	1001.044905705326	1080.168416441345	102.482028006650	1132.021440746282	855.207331066316	117.097116809627	977.345058718455	1107.846775641856	693.183860384086	1147.734433996068	919.481362786488	659.644743707040	
4	20.095142857143	807.858003265450	1010.587035293398	422.842100427661	998.452446138962	1428.577808874934	227.135555391741	1095.675809613640	1363.438827566716	394.445464422399	1010.489958469548	1449.057917322271	562.478971553087	998.550508616991	1497.422864412917	379.603988813128	1033.791686660680	952.310879484927	543.977668117319	1025.593889889892	964.265990837061	269.700897265881	1131.223107945449	800.792720292451	519.724514540873	1107.539321563328	678.900103260138	599.089839267728	1203.433126159976	649.909800415218	523.236296655123	1236.846840438451	540.084572380426	547.921349812570	1063.868198843226	749.911561294233	301.693706029677	967.563856966017	638.981501776716	243.142417885794	1044.902782179207	556.662719899590	307.834186168698	1039.635650370909	488.617054841331	319.377849922232	1014.373671875795	418.425000652885	311.517981344006	924.099543684350	303.539223759609	262.594293191937	975.079133524443	193.879773284028	336.219726348853	1170.303888307981	456.090320200432	554.594232424024	1054.591404425403	402.100727270598	614.047407974330	1054.589339355538	292.137398630900	566.235197400039	864.121868974062	200.832804865475	536.633336685187	1039.486040677887	173.752859867633	583.404275717552	930.228775551057	156.049066875688	614.015594744114	1119.572601543546	73.426634854762	616.204236126141	847.042998252322	38.383612836929	383.159059613640	919.731980092625	35.234719490471	301.087495412700	1002.663137559944	96.148352548821	326.105410933406	1131.232265719867	44.807798498236	295.726816956538	1009.132328845065	1082.328395662368	99.079581172878	1151.685334615118	864.373617394219	114.919123923021	967.240543488195	1107.741858703483	693.534959996086	1121.072295552163	903.484203084905	670.253655658869	
5	20.106857142857	806.986951390754	1009.888993999262	421.366302323639	998.800652902165	1428.858660063204	227.325883408080	1094.612920058552	1363.323049419161	395.319171766079	1007.994121002107	1448.431958050680	562.859877678524	997.676952495244	1497.317266223525	379.932924305590	1032.278331131612	952.681734024670	544.201167654345	1025.655802738982	964.315630839882	269.491800402045	1131.244186545757	803.280787487570	519.724897370290	1109.264140041978	681.121686758565	599.385970944374	1205.311063037552	653.215599797405	523.440021765602	1240.660469808037	545.059106576266	548.555560785778	1061.870083310723	748.970586144341	302.437943245486	964.686739245473	638.726898451315	242.781888002116	1040.354582496815	555.662499088505	308.135259905033	1034.235142036946	487.780534369393	319.679829191875	1008.676063733298	417.714838674130	311.689057920446	917.969120718029	303.379210215971	262.436110124783	967.605484878493	193.441378471187	336.411098645351	1178.189287552949	458.968002887249	555.566684957012	1065.951759553745	398.939932220549	615.663519517122	1071.671796825604	288.914828011027	568.172161539492	886.226291357734	188.049590562609	539.582837931031	1062.956748334115	169.136913227695	585.740711319862	954.705049190491	146.367375580926	616.682329335226	1147.800397038953	72.643338515996	618.362615904694	838.705641811666	38.387589596338	383.146763855477	911.408413403193	35.233310934862	301.101689812860	994.387199062397	96.055553428019	326.228736653497	1122.955249216826	44.580255146890	295.788013909384	1016.751235524077	1084.508085409416	95.905876498426	1170.672150703065	874.082357706599	113.111333220659	957.490974658179	1107.732567205557	693.883713402186	1094.325903351516	889.248326487723	680.353688740677	
6	20.118571428571	806.280711647172	1009.179194862083	420.036976609051	999.257668709938	1429.070026709176	227.616929343372	1093.665425089571	1363.138667600720	396.273137971930	1005.646141164242	1447.765563408716	563.313947839136	996.901450719858	1497.144442239720	380.352641132604	1030.839235850112	952.862768518432	544.425593104022	1025.781988707100	964.280994350529	269.396669592033	1130.987521494538	805.140655092748	519.832384477591	1110.282459441721	682.718419802973	599.721093354525	1206.377611472200	655.628092830104	523.694328466628	1243.499522563817	549.349422823756	549.190184758183	1059.865675660973	747.980830396309	303.105826916055	961.689510512316	638.500129920252	242.463235243295	1035.693020763183	554.677404098083	308.383754197439	1028.749565099615	486.995897387682	319.915151285746	1002.886271687794	417.058974346392	311.823887316512	911.758668909932	303.242481521393	262.264122002784	960.126084392177	193.031201037699	336.577036303360	1185.266484960127	461.403130760966	556.538795262820	1077.076645590795	395.304261042841	617.394929386212	1088.786291359478	285.568718517829	570.155085099346	909.204223284078	175.095998314200	542.578591154347	1086.951398060977	164.593989718577	588.076232772460	979.991910384518	136.654455498035	619.350553612880	1176.501048178902	72.237649519696	620.388008709558	830.468821501015	38.411005139395	383.112077018147	903.175231296226	35.229816041602	301.112178046609	986.203906249810	95.972046542582	326.330553624253	1114.765777324481	44.349871619184	295.844053105288	1023.840297032430	1086.695713133365	93.017454047328	1188.873518081151	884.510305654518	111.759019547383	948.095063875652	1107.861652113007	694.236270332260	1067.504459826702	877.154106097899	689.804596807961	
